<svg width="640" height="640" viewBox="0 0 640 640" fill="none" xmlns="http://www.w3.org/2000/svg">
<path d="M306.8 71C304.3 73.6 303.9 74.6 304.4 77.3C305.4 82.6 308.1 84 316.9 84C321.1 84 325.6 83.4 326.9 82.7C332.1 80.1 331.7 71.6 326.4 69.1C325 68.5 320.7 68 316.9 68C310.4 68 309.6 68.2 306.8 71Z" fill="#FF7A8A"/>
<path d="M358.6 74.3C355.5 77.4 355.2 81.8 357.8 84.9C359 86.5 362.4 87.7 370.5 89.5C376.6 90.8 386.7 93.6 393.1 95.6C406.3 99.7 409.1 99.6 411.5 94.9C413.2 91.7 412.8 88.7 410.3 85.8C407.8 83 378.4 74.1 365.7 72.4C361.7 71.8 360.9 72.1 358.6 74.3Z" fill="#FF7A8A"/>
<path d="M249 78.5C170.3 101.4 107 162.5 81.1001 240.5C65.5001 287.7 64.0001 334.4 76.5001 383.6C81.0001 401.1 85.6001 413.4 94.5001 431.5C113.7 470.8 142 503.2 179.2 528.8C189.5 535.8 192.6 536.4 196.5 532.5C198.9 530.2 199.6 526.8 198.4 523.6C198.1 522.7 194.1 519.6 189.6 516.7C176.9 508.4 162.5 496.3 150.4 483.7C115.9 448.1 94.3001 404.3 86.3001 354C83.8001 337.9 83.8001 301.1 86.3001 285.5C94.7001 234.2 115.9 191.7 151.5 155.2C181 124.8 214.4 104.9 256 92.9C264 90.6 270 88.3 270.7 87.3C272.7 84.7 272.3 79.3 270 77C267.2 74.2 262.5 74.5 249 78.5Z" fill="#FF7A8A"/>
<path d="M443.6 107.1C440.7 109.4 440 114.4 442.3 117.2C442.9 118.1 447.3 121.4 452 124.5C498.3 155.6 532.6 203.3 547.5 257.6C553.6 279.9 555.4 293.6 555.4 319.5C555.5 345.4 554.2 356.4 548.5 378.5C527.1 461.9 461.9 527.2 378.5 548.5C356.8 554.1 345.3 555.4 320 555.5C295.2 555.5 283.9 554.2 263.2 549C256.8 547.3 250.3 546 248.9 546C243.8 546 240.3 553 243 558C244.7 561.1 262.5 566 283.5 569.1C316.6 574 347.7 572.4 382 563.9C415.7 555.6 450.9 537.9 479 515.3C541 465.5 577.2 382.6 571.2 304C568.4 268 561 240.2 545.5 208.5C526.4 169.3 498 136.8 460.8 111.2C450.8 104.5 447.9 103.7 443.6 107.1Z" fill="#FF7A8A"/>
<path d="M306.9 166.4C289.5 171.2 274.6 187.1 270.9 204.7C269.5 211.5 270.2 223.7 272.3 229.7L273.7 233.9L230.5 234.2L187.4 234.5L183.7 237C180 239.5 176 245.5 176 248.4C176 249.4 175.1 250 173.5 250C170.4 250 164.2 253 161.8 255.7C156.9 261.1 157 259.3 157 347.2C157 425.4 157.1 429.7 158.9 433.6C159.9 435.9 162.5 439 164.6 440.6L168.3 443.5L233.8 443.8C297.5 444 299.5 444 303.3 442.1C307.3 440.1 307.4 440.1 308.7 442C309.9 443.8 311.3 444 320.1 444C328.7 444 330.2 443.7 331.7 442.1C333.3 440.2 333.4 440.2 337.1 442.1C340.8 443.9 343.6 444 404.9 444C447.7 444 469.8 443.6 471.7 442.9C475.5 441.5 480 437.2 481.6 433.3C483.7 428.5 483.7 265.5 481.6 260.7C479.6 255.9 474.7 251.9 469.4 250.5C465.3 249.5 464.6 248.9 463.4 245.4C461.8 240.6 457.3 236.5 452.3 235.1C449.9 234.4 433.1 234 407.3 234H366.1L367.6 229.7C368.5 227.4 369.4 222.3 369.7 218.5C371.9 189.4 348.8 164.8 319.6 165.1C315.2 165.1 309.4 165.7 306.9 166.4ZM330.5 171.5C348.1 176.1 361.2 190.5 364 208.3C366.2 222.7 360.8 237.4 349.5 247.8L343 253.7V262.4V271H333H323V250.6V230.2L332.4 229.8C340 229.6 342.4 229.1 344.6 227.4C349.6 223.7 351.4 220.4 351.4 215C351.4 200.9 333 194.7 324.9 206.2C322 210.2 321.2 216.5 323.5 217.4C325.9 218.3 326.7 217.5 327.4 213.6C328.3 209 332.1 206 337.2 206C345.2 206 349.1 215.6 343.4 221.4L340.7 224H320.1C300.7 224 299.2 223.9 297.2 222C290.8 216 294.7 206 303.5 206C308.3 206 311.6 208.8 312.6 213.7C313.2 216.8 315.3 218.5 317.1 217.4C318.8 216.4 318 210.3 315.8 207C309.5 197.9 297.6 198 290.7 207.2C288.1 210.7 288.1 219.3 290.7 222.8C294.9 228.4 297.5 229.5 307.6 229.8L317 230.2V250.6V271H307H297V262.4V253.7L290.5 247.8C279.2 237.4 273.8 222.7 276 208.3C280 182.4 305.7 165.1 330.5 171.5ZM279 243.5C280.1 245.4 283.3 248.9 286.1 251.4L291 255.8V272.3C291 281.3 291.3 290.2 291.6 291.9C292.5 296.3 297.4 301 301.1 301C303.8 301 304 301.2 304 305C304 309.6 306.1 314.5 308.5 315.4C309.4 315.7 311.7 316 313.5 316C315.6 316 317 316.6 317.4 317.6C317.7 318.4 317.9 338.2 317.7 361.5C317.5 402.7 317.4 403.9 315.4 406.7C311.4 412.1 313 412 248.7 412H189L185.2 408.6L181.5 405.2L181.2 328.3C181 274.4 181.2 250.4 182 247.7C182.7 245.2 184.2 243.2 186.3 242C189.3 240.1 191.6 240 233.2 240H276.8L279 243.5ZM455.6 243.4L459 246.8V324.9C459 410.7 459.2 407.3 453 410.5C450.5 411.8 441.9 412 391 412C326.2 412 327.7 412.1 324.5 406C323.2 403.5 323 396.5 323 359.5V316H326.4C328.3 316 330.6 315.7 331.5 315.4C333.9 314.5 336 309.6 336 305C336 301.7 336.3 301 338 301C341.1 301 344.8 298.9 346.7 296.1C348.2 293.9 348.5 290.6 348.8 274.6L349.2 255.7L354 251.3C356.7 248.9 359.9 245.4 361 243.5L363.2 240H407.7H452.2L455.6 243.4ZM176.2 330.9C176.5 405.8 176.5 406.9 178.6 409.6C179.7 411.1 181.9 413.3 183.4 414.4C186.1 416.5 187.5 416.5 246.8 417L307.5 417.5L307.8 423C308.1 429.8 305.8 434.6 300.9 437.2C297.7 438.9 293.7 439 235.2 439C167.4 439 169.6 439.2 165.1 433.4C163 430.7 163 430.4 163 347V263.3L165.2 260.5C167.2 257.9 172.1 255.1 174.7 255C175.7 255 176 271.6 176.2 330.9ZM472.7 257.7C478.1 261.3 478 259.5 478 347.2C478 422.6 477.9 428.8 476.2 432C472.6 439.2 474.8 439 405.7 439C338.7 439 339.6 439.1 335.2 433.5C333.4 431.3 333 429.4 333 423.9V417H392.6C459.5 417 456.8 417.3 461.8 409.7L464.5 405.6L464.8 330.2L465.1 254.8L467.6 255.4C469.1 255.8 471.3 256.8 472.7 257.7ZM343 281V285L326.3 285.2C310.8 285.5 309.5 285.6 309.2 287.4C309 288.4 309.4 289.6 310.2 290.1C310.9 290.6 318.6 291 327.3 291C336.4 291 343 291.4 343 291.9C343 292.5 342 293.6 340.8 294.4C339 295.7 335.2 296 320 296C296.7 296 297 296.2 297 284.9V277H320H343V281ZM329.8 305.7L329.5 310.5H320H310.5L310.2 305.7L309.9 301H320H330.1L329.8 305.7ZM326.9 427.2L327 439H320H313V427.9V416.7L316.7 413.5L320.5 410.2L323.7 412.9L326.9 415.5V427.2Z" fill="#FF7A8A"/>
<path d="M203 256.9C201.8 259.2 201.7 275.9 202.8 277.8C203.5 278.7 211.9 279 241.6 278.8L279.5 278.5V267V255.5L241.8 255.2C205.3 255 204 255 203 256.9ZM274.8 267.3L275.1 274H241.5H208V267.6C208 261.3 208.1 261.1 210.8 260.8C212.3 260.6 227.2 260.5 244 260.5L274.5 260.6L274.8 267.3Z" fill="#FF7A8A"/>
<path d="M203.7 291.7C203.3 292 203 293.2 203 294.2C203 295.9 204.5 296 230.1 296H257.1L256.8 293.7L256.5 291.5L230.4 291.2C216.1 291.1 204.1 291.3 203.7 291.7Z" fill="#FF7A8A"/>
<path d="M222.4 313.5C222 314.3 222 315.7 222.4 316.5C222.8 317.8 226.3 318 245.3 318C264 318 268 317.8 269 316.5C270 315.3 270 314.7 269 313.5C268 312.2 264 312 245.3 312C226.3 312 222.8 312.2 222.4 313.5Z" fill="#FF7A8A"/>
<path d="M203.2 336.2L203.5 338.5H246H288.5L288.8 336.2L289.1 334H246H202.9L203.2 336.2Z" fill="#FF7A8A"/>
<path d="M203.7 355.7C203.3 356 203 357.2 203 358.2C203 359.9 205 360 246.1 360H289.1L288.8 357.7L288.5 355.5L246.4 355.2C223.3 355.1 204 355.3 203.7 355.7Z" fill="#FF7A8A"/>
<path d="M203.4 377.5C203 378.3 203 379.7 203.4 380.5C203.9 381.8 207.5 382 230.2 381.8L256.5 381.5V379V376.5L230.2 376.2C207.5 376 203.9 376.2 203.4 377.5Z" fill="#FF7A8A"/>
<path d="M370 268.5C369.3 269.3 369 270.7 369.4 271.5C369.9 272.8 372.1 273 384.2 272.8C397.3 272.5 398.5 272.3 398.8 270.6C399.4 267.6 397.2 267 383.9 267C373.9 267 371 267.3 370 268.5Z" fill="#FF7A8A"/>
<path d="M385.3 290.5C385 291.4 385.2 292.6 385.7 293.1C386.2 293.6 395.6 293.9 408.6 293.8C429.7 293.5 430.5 293.4 430.5 291.5C430.5 289.6 429.7 289.5 408.2 289.2C388.7 289 385.9 289.2 385.3 290.5Z" fill="#FF7A8A"/>
<path d="M345 311.5C344 312.7 344 313.3 345 314.5C346.9 316.7 428.1 316.8 430 314.5C430.7 313.7 431 312.3 430.6 311.5C429.8 309.2 346.9 309.2 345 311.5Z" fill="#FF7A8A"/>
<path d="M364.5 332.4C362.9 333.6 362.8 334 363.9 335.4C365.1 336.8 368 337 387.9 336.8C409.1 336.5 410.5 336.4 410.8 334.6C411 333.6 410.6 332.4 409.8 331.9C409.1 331.4 399 331 387.4 331C371 331 366 331.3 364.5 332.4Z" fill="#FF7A8A"/>
<path d="M344.3 354.6C344 355.4 344.2 356.6 344.7 357.1C345.2 357.6 356.3 357.9 372.1 357.8C397.7 357.5 398.5 357.4 398.5 355.5C398.5 353.6 397.7 353.5 371.7 353.2C348.1 353 344.9 353.2 344.3 354.6Z" fill="#FF7A8A"/>
<path d="M344.4 371.3C344.2 372 344.1 377.3 344.2 383.1L344.5 393.5H391H437.5V382V370.5L391.2 370.2C353.5 370 344.9 370.2 344.4 371.3ZM432.5 382V388.5L391.3 388.8L350 389V382V375L391.3 375.2L432.5 375.5V382Z" fill="#FF7A8A"/>
<path d="M471.4 241.5C470.5 243.7 471.8 245 475.1 245C479.2 245 484 247.2 487 250.4L489.5 253.2L490 279.8C490.5 305.7 490.6 306.5 492.5 306.5C494.4 306.5 494.5 305.7 494.8 281.5C495 267.7 494.8 255.1 494.5 253.3C493.8 249.1 489.8 244.4 484.9 242C480.3 239.6 472.2 239.3 471.4 241.5Z" fill="#FF7A8A"/>
<path d="M145.7 404.6C145.3 405 145 413.4 145 423.4C145 439.6 145.2 441.8 147.1 445.7C149.6 450.9 155.9 455 161.4 455C164.7 455 165.1 454.7 164.8 452.8C164.6 451.2 163.6 450.4 161.3 449.9C157.2 449.1 153.4 446.6 151.8 443.8C150.9 442.2 150.3 435.4 150 423C149.6 407.4 149.3 404.5 148 404.2C147.1 404.1 146.1 404.2 145.7 404.6Z" fill="#FF7A8A"/>
<path d="M197.2 459.2L197.5 461.5L295.1 461.8C383.7 462 392.8 461.9 393.4 460.4C393.7 459.5 393.8 458.4 393.4 457.9C393.1 457.4 352.7 457 294.9 457H196.9L197.2 459.2Z" fill="#FF7A8A"/>
<path d="M168.5 469.7C161.8 470.2 160 471.1 162 473.5C163.1 474.8 167.8 475 200.4 474.8C237.3 474.5 237.5 474.5 237.8 472.4C238 470.9 237.4 470.1 235.8 469.6C233.4 469 179.2 469.1 168.5 469.7Z" fill="#FF7A8A"/>
<path d="M298.3 471.6C298 472.4 298.2 473.6 298.7 474.1C299.2 474.6 329.6 474.9 376.6 474.8C452.7 474.5 453.5 474.5 453.5 472.5C453.5 470.5 452.7 470.5 376.2 470.2C306.7 470 298.9 470.1 298.3 471.6Z" fill="#FF7A8A"/>
<circle cx="319.5" cy="320.5" r="200.5" fill="#FF7A8A" fill-opacity="0.13"/>
</svg>
